<?xml version="1.0" encoding="UTF-8"?>
<svg xmlns="http://www.w3.org/2000/svg" xmlns:xlink="http://www.w3.org/1999/xlink" width="26px" height="26px" viewBox="0 0 26 26" version="1.1">
<g id="surface1">
<path style=" stroke:none;fill-rule:nonzero;fill:rgb(97.647059%,92.54902%,0%);fill-opacity:1;" d="M 7.378906 -0.359375 C 7.828125 -0.363281 8.273438 -0.363281 8.734375 -0.367188 C 9.675781 -0.371094 10.617188 -0.363281 11.558594 -0.351562 C 12.996094 -0.339844 14.429688 -0.351562 15.867188 -0.371094 C 16.785156 -0.367188 17.703125 -0.363281 18.621094 -0.359375 C 19.261719 -0.367188 19.261719 -0.367188 19.917969 -0.375 C 22.066406 -0.332031 23.085938 -0.140625 24.914062 1.085938 C 26.363281 3.25 26.390625 4.828125 26.359375 7.378906 C 26.363281 7.828125 26.363281 8.273438 26.367188 8.734375 C 26.371094 9.675781 26.363281 10.617188 26.351562 11.558594 C 26.339844 12.996094 26.351562 14.429688 26.371094 15.867188 C 26.367188 16.785156 26.363281 17.703125 26.359375 18.621094 C 26.363281 19.046875 26.371094 19.476562 26.375 19.917969 C 26.332031 22.066406 26.140625 23.085938 24.914062 24.914062 C 22.75 26.363281 21.171875 26.390625 18.621094 26.359375 C 17.949219 26.363281 17.949219 26.363281 17.265625 26.367188 C 16.324219 26.371094 15.382812 26.363281 14.441406 26.351562 C 13.003906 26.339844 11.570312 26.351562 10.132812 26.371094 C 9.214844 26.367188 8.296875 26.363281 7.378906 26.359375 C 6.953125 26.363281 6.523438 26.371094 6.082031 26.375 C 3.933594 26.332031 2.914062 26.140625 1.085938 24.914062 C -0.363281 22.75 -0.390625 21.171875 -0.359375 18.621094 C -0.363281 18.171875 -0.363281 17.726562 -0.367188 17.265625 C -0.371094 16.324219 -0.363281 15.382812 -0.351562 14.441406 C -0.339844 13.003906 -0.351562 11.570312 -0.371094 10.128906 C -0.367188 9.214844 -0.363281 8.296875 -0.359375 7.378906 C -0.363281 6.953125 -0.371094 6.523438 -0.375 6.082031 C -0.332031 3.933594 -0.140625 2.914062 1.085938 1.085938 C 3.25 -0.363281 4.828125 -0.390625 7.378906 -0.359375 Z M 7.378906 -0.359375 "/>
<path style=" stroke:none;fill-rule:nonzero;fill:rgb(3.529412%,4.313726%,1.960784%);fill-opacity:1;" d="M 21.667969 13 C 22.558594 13 23.453125 13 24.375 13 C 24.375 15.859375 24.375 18.71875 24.375 21.667969 C 22.585938 21.667969 20.800781 21.667969 18.957031 21.667969 C 18.957031 19.699219 18.957031 17.734375 18.957031 15.707031 C 19.851562 15.707031 20.746094 15.707031 21.667969 15.707031 C 21.667969 14.816406 21.667969 13.921875 21.667969 13 Z M 21.667969 13 "/>
<path style=" stroke:none;fill-rule:nonzero;fill:rgb(3.529412%,4.313726%,1.960784%);fill-opacity:1;" d="M 1.625 13 C 2.519531 13 3.414062 13 4.332031 13 C 4.332031 13.894531 4.332031 14.789062 4.332031 15.707031 C 5.226562 15.707031 6.121094 15.707031 7.042969 15.707031 C 7.042969 17.675781 7.042969 19.640625 7.042969 21.667969 C 5.253906 21.667969 3.464844 21.667969 1.625 21.667969 C 1.625 18.808594 1.625 15.945312 1.625 13 Z M 1.625 13 "/>
<path style=" stroke:none;fill-rule:nonzero;fill:rgb(61.56863%,47.450981%,4.313726%);fill-opacity:1;" d="M 10.292969 21.667969 C 12.078125 21.667969 13.867188 21.667969 15.707031 21.667969 C 15.707031 22.558594 15.707031 23.453125 15.707031 24.375 C 13.921875 24.375 12.132812 24.375 10.292969 24.375 C 10.292969 23.480469 10.292969 22.585938 10.292969 21.667969 Z M 10.292969 21.667969 "/>
<path style=" stroke:none;fill-rule:nonzero;fill:rgb(54.11765%,95.294118%,90.196079%);fill-opacity:1;" d="M 18.957031 13 C 19.851562 13 20.746094 13 21.667969 13 C 21.667969 13.894531 21.667969 14.789062 21.667969 15.707031 C 20.773438 15.707031 19.878906 15.707031 18.957031 15.707031 C 18.957031 14.816406 18.957031 13.921875 18.957031 13 Z M 18.957031 13 "/>
<path style=" stroke:none;fill-rule:nonzero;fill:rgb(54.11765%,95.294118%,90.588236%);fill-opacity:1;" d="M 4.332031 13 C 5.226562 13 6.121094 13 7.042969 13 C 7.042969 13.894531 7.042969 14.789062 7.042969 15.707031 C 6.148438 15.707031 5.253906 15.707031 4.332031 15.707031 C 4.332031 14.816406 4.332031 13.921875 4.332031 13 Z M 4.332031 13 "/>
<path style=" stroke:none;fill-rule:nonzero;fill:rgb(59.607846%,38.82353%,7.450981%);fill-opacity:1;" d="M 18.957031 4.332031 C 19.851562 4.332031 20.746094 4.332031 21.667969 4.332031 C 21.667969 5.226562 21.667969 6.121094 21.667969 7.042969 C 20.773438 7.042969 19.878906 7.042969 18.957031 7.042969 C 18.957031 6.148438 18.957031 5.253906 18.957031 4.332031 Z M 18.957031 4.332031 "/>
<path style=" stroke:none;fill-rule:nonzero;fill:rgb(59.607846%,38.82353%,7.450981%);fill-opacity:1;" d="M 4.332031 4.332031 C 5.226562 4.332031 6.121094 4.332031 7.042969 4.332031 C 7.042969 5.226562 7.042969 6.121094 7.042969 7.042969 C 6.148438 7.042969 5.253906 7.042969 4.332031 7.042969 C 4.332031 6.148438 4.332031 5.253906 4.332031 4.332031 Z M 4.332031 4.332031 "/>
<path style=" stroke:none;fill-rule:nonzero;fill:rgb(57.254905%,41.960785%,4.705882%);fill-opacity:1;" d="M 10.832031 22.207031 C 12.261719 22.207031 13.691406 22.207031 15.167969 22.207031 C 15.167969 22.746094 15.167969 23.28125 15.167969 23.832031 C 13.738281 23.832031 12.308594 23.832031 10.832031 23.832031 C 10.832031 23.296875 10.832031 22.761719 10.832031 22.207031 Z M 10.832031 22.207031 "/>
</g>
</svg>
