<?xml version="1.0" encoding="UTF-8"?>
<svg version="1.1" xmlns="http://www.w3.org/2000/svg" width="400" height="400">
<path d="M0 0 C2 1 2 1 2.61328125 2.6171875 C4.0772891 11.6378419 3.31770887 21.2051226 1 30 C1.71542969 29.3709375 2.43085938 28.741875 3.16796875 28.09375 C21.9325014 11.97518638 41.6639556 2.42207848 66.65771484 3.77050781 C76.57343897 4.74202967 84.72569089 10.52284406 91 18 C97.45623311 27.60649157 99.28055404 36.69442067 100 48 C100.85271484 48.185625 100.85271484 48.185625 101.72265625 48.375 C109.27232672 50.39160647 113.21218862 54.19821812 117.09765625 60.890625 C122.90852255 74.62048585 118.55370967 92.01353811 113.421875 105.1015625 C108.39287298 117.38698453 101.56818987 127.86067084 93 138 C92.195625 139.010625 91.39125 140.02125 90.5625 141.0625 C86.90743748 143.82608386 83.53151981 144.28836944 79 144 C75.30603052 142.47423 72.91400487 140.52579845 71 137 C70.35639276 132.77058101 71.01597799 130.2532304 73.5390625 126.80859375 C74.68388172 125.39134429 75.84976694 123.99110682 77.0234375 122.59765625 C88.25498495 109.23863139 96.4175216 94.41538102 97.5625 76.75 C97.64628906 75.48671875 97.73007813 74.2234375 97.81640625 72.921875 C97.87699219 71.95765625 97.93757812 70.9934375 98 70 C96.06398479 70.14670159 96.06398479 70.14670159 94 71 C92.59189822 73.03782904 92.59189822 73.03782904 91.5546875 75.63671875 C91.12269043 76.60005127 90.69069336 77.56338379 90.24560547 78.5559082 C89.79330566 79.5893335 89.34100586 80.62275879 88.875 81.6875 C81.46403126 97.87330484 71.77418511 110.5533581 59 123 C58.48824219 123.56847656 57.97648437 124.13695312 57.44921875 124.72265625 C47.05778988 135.91513745 31.56302454 146.26583971 16.0625 147.25 C12.04363188 147.1743151 9.37334421 146.30000741 6 144 C2.48417663 139.81902085 1.09105729 136.46343763 1 131 C4.37768778 106.56659616 33.77304587 81.52981388 52.0559082 67.52490234 C58.65377647 62.64487409 65.69812746 57.74509924 73.3125 54.65625 C76.25722303 53.24785224 76.25722303 53.24785224 76.86328125 50.21875 C76.90839844 49.1565625 76.95351562 48.094375 77 47 C77.05542969 45.9378125 77.11085938 44.875625 77.16796875 43.78125 C77.17441406 42.6984375 77.18085938 41.615625 77.1875 40.5 C77.20167969 39.4171875 77.21585937 38.334375 77.23046875 37.21875 C76.98911743 33.84801295 76.19908096 31.1469951 75 28 C49.77067108 30.36745804 30.42541599 41.1526739 14.3046875 60.44140625 C13 62 13 62 11 64 C10.505 61.03 10.505 61.03 10 58 C10 61.96 10 65.92 10 70 C11.753125 69.360625 13.50625 68.72125 15.3125 68.0625 C18.20019496 67.00934066 21.08389474 65.97203509 24 65 C20.45767154 73.06481577 11.15644967 76.74183917 3.72412109 80.66479492 C-3.21293458 84.41040196 -7.3399597 88.39988485 -10 96 C-10.23346559 97.52017933 -10.4624785 99.04104783 -10.6875 100.5625 C-11.65006757 105.32639374 -13.97238775 107.24915103 -17.83203125 110.00390625 C-20.50415693 111.23163967 -22.09454726 111.49821065 -25 111 C-26.73046875 109.171875 -26.73046875 109.171875 -28.1875 106.75 C-28.92033203 105.56664062 -28.92033203 105.56664062 -29.66796875 104.359375 C-32.36636955 99.5798029 -33.43862949 97.53319034 -32 92 C-31.2575 90.5459375 -31.2575 90.5459375 -30.5 89.0625 C-28.78430104 85.55961463 -28.1417123 82.89708826 -28 79 C-28.50144531 78.21238281 -29.00289063 77.42476563 -29.51953125 76.61328125 C-32.22641714 71.83516341 -30.33892126 67.0879008 -29 62 C-28.08129866 59.22729293 -27.07612673 56.4892204 -26.0625 53.75 C-21.59290913 41.62582696 -18.95785834 29.99097342 -21 17 C-20.34 17 -19.68 17 -19 17 C-13.44419134 27.37357631 -13.44419134 27.37357631 -13 33 C-6.2245886 22.8950909 -2.2608287 11.92073315 0 0 Z M11 51 C12 53 12 53 12 53 Z M-17 62 C-17.6708712 63.6232687 -18.33657029 65.24867578 -19 66.875 C-19.37125 67.77992188 -19.7425 68.68484375 -20.125 69.6171875 C-21.11490226 71.88983858 -21.11490226 71.88983858 -21 74 C-19.02463255 73.65213292 -19.02463255 73.65213292 -17 73 C-15.79727181 70.59454362 -15.89928528 69.05003047 -15.9375 66.375 C-15.94652344 65.55773437 -15.95554688 64.74046875 -15.96484375 63.8984375 C-15.97644531 63.27195313 -15.98804688 62.64546875 -16 62 C-16.33 62 -16.66 62 -17 62 Z M57 91 C54.1635971 93.78694182 51.33382309 96.58042817 48.51000977 99.38012695 C47.54859153 100.33149157 46.58538536 101.28105291 45.62036133 102.22875977 C44.2330945 103.59175121 42.85277672 104.96180411 41.47265625 106.33203125 C40.64000244 107.15421143 39.80734863 107.9763916 38.94946289 108.82348633 C36.80236105 110.93059619 36.80236105 110.93059619 36 114 C39.08388242 112.62646699 41.19264722 111.05439851 43.56640625 108.6640625 C44.21673828 108.01179688 44.86707031 107.35953125 45.53710938 106.6875 C46.20548828 106.006875 46.87386719 105.32625 47.5625 104.625 C48.23474609 103.95210937 48.90699219 103.27921875 49.59960938 102.5859375 C52.64137912 99.51698212 55.46099595 96.50589922 58 93 C57.67 92.34 57.34 91.68 57 91 Z " fill="#42C61E" transform="translate(156,102)"/>
<path d="M0 0 C2 1 2 1 2.61328125 2.6171875 C4.0772891 11.6378419 3.31770887 21.2051226 1 30 C1.71542969 29.3709375 2.43085938 28.741875 3.16796875 28.09375 C21.9325014 11.97518638 41.6639556 2.42207848 66.65771484 3.77050781 C76.52664197 4.7374446 84.79559817 10.50123158 91 18 C96.14901791 26.00676891 99.16766272 33.74269274 99.0625 43.3125 C99.05347656 44.38113281 99.04445312 45.44976562 99.03515625 46.55078125 C99.01775391 47.76314453 99.01775391 47.76314453 99 49 C97 47 97 47 96.98046875 45.1875 C97.04878906 44.465625 97.11710938 43.74375 97.1875 43 C97.31475141 36.41473939 94.63859 31.11654799 90.42578125 26.140625 C86.19716504 22.15843164 81.56388106 20.43828218 76 19 C77.35468103 20.35468103 78.89471293 21.12247456 80.5625 22.0625 C81.696875 22.701875 82.83125 23.34125 84 24 C80.60937134 25.13020955 78.45419493 24.70907227 75 24 C62.48791655 22.75896408 51.19754459 26.99412035 40.23730469 32.62524414 C36.16180475 34.67257954 32.56512469 35.75914066 28 36 C25.8614515 33.8614515 25.57344937 32.86724686 25 30 C14.3615399 42.16955361 9.52159124 53.81383707 10 70 C11.13888672 69.58427734 11.13888672 69.58427734 12.30078125 69.16015625 C13.79158203 68.61681641 13.79158203 68.61681641 15.3125 68.0625 C16.29863281 67.70285156 17.28476563 67.34320313 18.30078125 66.97265625 C20.1920563 66.29114035 22.09284329 65.6357189 24 65 C20.45767154 73.06481577 11.15644967 76.74183917 3.72412109 80.66479492 C-3.21293458 84.41040196 -7.3399597 88.39988485 -10 96 C-10.23346559 97.52017933 -10.4624785 99.04104783 -10.6875 100.5625 C-11.65006757 105.32639374 -13.97238775 107.24915103 -17.83203125 110.00390625 C-20.50415693 111.23163967 -22.09454726 111.49821065 -25 111 C-26.73046875 109.171875 -26.73046875 109.171875 -28.1875 106.75 C-28.92033203 105.56664062 -28.92033203 105.56664062 -29.66796875 104.359375 C-32.36636955 99.5798029 -33.43862949 97.53319034 -32 92 C-31.2575 90.5459375 -31.2575 90.5459375 -30.5 89.0625 C-28.78430104 85.55961463 -28.1417123 82.89708826 -28 79 C-28.50144531 78.21238281 -29.00289063 77.42476563 -29.51953125 76.61328125 C-32.22641714 71.83516341 -30.33892126 67.0879008 -29 62 C-28.08129866 59.22729293 -27.07612673 56.4892204 -26.0625 53.75 C-21.59290913 41.62582696 -18.95785834 29.99097342 -21 17 C-20.34 17 -19.68 17 -19 17 C-13.44419134 27.37357631 -13.44419134 27.37357631 -13 33 C-6.2245886 22.8950909 -2.2608287 11.92073315 0 0 Z M-17 62 C-17.6708712 63.6232687 -18.33657029 65.24867578 -19 66.875 C-19.37125 67.77992188 -19.7425 68.68484375 -20.125 69.6171875 C-21.11490226 71.88983858 -21.11490226 71.88983858 -21 74 C-19.02463255 73.65213292 -19.02463255 73.65213292 -17 73 C-15.79727181 70.59454362 -15.89928528 69.05003047 -15.9375 66.375 C-15.94652344 65.55773437 -15.95554688 64.74046875 -15.96484375 63.8984375 C-15.97644531 63.27195313 -15.98804688 62.64546875 -16 62 C-16.33 62 -16.66 62 -17 62 Z " fill="#41C51E" transform="translate(156,102)"/>
<path d="M0 0 C-0.50063419 5.98797758 -3.05250228 10.65330591 -5.8125 15.875 C-6.54303589 17.26187012 -6.54303589 17.26187012 -7.28833008 18.67675781 C-12.03940436 27.45659165 -17.6526384 35.31538097 -24 43 C-24.74378906 43.90363281 -25.48757812 44.80726563 -26.25390625 45.73828125 C-30.46008649 50.63588838 -35.00408138 54.92187579 -40 59 C-40.91910156 59.80308594 -41.83820313 60.60617188 -42.78515625 61.43359375 C-47.68411877 65.48550985 -51.47867351 68.58612552 -58 68.8125 C-61.22258391 68.50558725 -62.86137557 68.0805956 -65.6875 66.4375 C-67.80522839 62.50457584 -67.64106949 59.36183496 -66.48046875 55.0859375 C-64.14864314 49.31955101 -59.95744899 46.28127572 -55.14453125 42.55078125 C-47.73919778 36.70002932 -40.84240525 29.67346123 -35.1875 22.125 C-28.13339152 12.72522924 -12.49699112 0 0 0 Z " fill="#2F9FFD" transform="translate(249,172)"/>
<path d="M0 0 C4.15096454 0.24417438 6.45370849 0.56544994 9.75 3.1875 C16.00343853 11.00429816 18.0217842 21.11058863 17 31 C13.46765877 44.86963396 4.05819628 57.28081251 -5 68 C-5.804375 69.010625 -6.60875 70.02125 -7.4375 71.0625 C-11.09256252 73.82608386 -14.46848019 74.28836944 -19 74 C-22.69396948 72.47423 -25.08599513 70.52579845 -27 67 C-27.64360724 62.77058101 -26.98402201 60.2532304 -24.4609375 56.80859375 C-23.31611828 55.39134429 -22.15023306 53.99110682 -20.9765625 52.59765625 C-9.74501505 39.23863139 -1.5824784 24.41538102 -0.4375 6.75 C-0.35371094 5.48671875 -0.26992187 4.2234375 -0.18359375 2.921875 C-0.09271484 1.47554687 -0.09271484 1.47554687 0 0 Z " fill="#32A9FD" transform="translate(254,172)"/>
<path d="M0 0 C7.18682721 0.33272348 13.2416573 1.58016853 18.69140625 6.5390625 C25.00917909 13.47436201 27.49863574 19.46443193 27.140625 28.875 C27.09421875 29.57625 27.0478125 30.2775 27 31 C26.07058594 31.12117188 25.14117187 31.24234375 24.18359375 31.3671875 C22.94738281 31.53476563 21.71117187 31.70234375 20.4375 31.875 C18.61025391 32.11863281 18.61025391 32.11863281 16.74609375 32.3671875 C13.02144339 32.99637765 9.60504005 33.8957535 6 35 C6.02320313 33.69804687 6.04640625 32.39609375 6.0703125 31.0546875 C6.08907942 29.32813076 6.10727863 27.60156779 6.125 25.875 C6.15013672 24.59109375 6.15013672 24.59109375 6.17578125 23.28125 C6.21306681 18.43412707 5.89580643 14.55292095 4 10 C-21.22932892 12.36745804 -40.57458401 23.1526739 -56.6953125 42.44140625 C-58 44 -58 44 -60 46 C-60.92891443 32.65975665 -56.66783086 23.09170451 -48 13 C-47.01 12.34 -46.02 11.68 -45 11 C-44.34 12.98 -43.68 14.96 -43 17 C-37.08761021 16.48383899 -32.57651198 14.6654848 -27.25 12.125 C-14.29094756 6.18823032 -3.24212118 3.46806735 11 6 C10.45730469 5.73445313 9.91460937 5.46890625 9.35546875 5.1953125 C8.64003906 4.84210938 7.92460937 4.48890625 7.1875 4.125 C6.47980469 3.77695313 5.77210938 3.42890625 5.04296875 3.0703125 C3 2 3 2 0 0 Z " fill="#176B02" transform="translate(227,120)"/>
<path d="M0 0 C4.39984021 0.3142743 7.33874526 1.33596269 10.609375 4.3828125 C16.24943447 10.94175806 16.55092361 18.05277709 16.33984375 26.4453125 C15.91975731 30.83932006 14.93251352 34.05445156 13 38 C12.67 38 12.34 38 12 38 C11.94392578 36.74896484 11.94392578 36.74896484 11.88671875 35.47265625 C11.20410917 23.35984503 11.20410917 23.35984503 5.5 13 C1.31705783 9.65364626 -2.59283948 9.53325546 -7.77734375 9.6015625 C-25.96827297 11.85062284 -40.51916675 26.82315121 -53 39 C-54.02589445 39.98583031 -55.05192645 40.9715175 -56.078125 41.95703125 C-69.10645004 53.86134936 -69.10645004 53.86134936 -75.3125 69.625 C-75.30285074 72.88849546 -75.30285074 72.88849546 -73.7734375 74.66796875 C-71.55747607 76.33238031 -70.05754876 76.48858342 -67.3125 76.6875 C-66.50425781 76.75324219 -65.69601563 76.81898438 -64.86328125 76.88671875 C-64.24839844 76.92410156 -63.63351563 76.96148437 -63 77 C-67.31352519 81.61785365 -72.39916819 84.2061827 -78.75 84.5625 C-82.08086793 84.39021373 -82.82035147 84.14821004 -85.5 81.9375 C-87.59868269 77.82757974 -88.57825026 74.43659652 -87.48828125 69.84375 C-86.14546286 65.92186771 -85.5730368 64.38202453 -82 62 C-82 65.63 -82 69.26 -82 73 C-81.67 71.5975 -81.34 70.195 -81 68.75 C-76.64125228 54.26176814 -64.10796362 41.8586414 -54 31 C-52.98873047 29.89011719 -52.98873047 29.89011719 -51.95703125 28.7578125 C-41.03002741 17.23628124 -23.12059051 2.1901921 -6.51953125 1.7421875 C-2.42453616 2.16121025 1.24105406 3.35720141 5 5 C3.35 3.35 1.7 1.7 0 0 Z " fill="#166B04" transform="translate(258,163)"/>
<path d="M0 0 C-0.5439085 5.47361889 -2.55393801 9.58317001 -5.0625 14.375 C-5.62807617 15.47908203 -5.62807617 15.47908203 -6.20507812 16.60546875 C-7.12944364 18.40739646 -8.06372614 20.20423099 -9 22 C-9.33 22 -9.66 22 -10 22 C-10.495 18.04 -10.495 18.04 -11 14 C-17.5959426 14.73288251 -21.97178979 22.21522239 -26 27 C-29.51842 31.17924 -33.07820283 35.19354981 -37 39 C-35.61735163 36.13132769 -34.07851447 33.43975968 -32.375 30.75 C-31.70597656 29.69039062 -31.70597656 29.69039062 -31.0234375 28.609375 C-30.68570313 28.07828125 -30.34796875 27.5471875 -30 27 C-30.6290625 27.71285156 -31.258125 28.42570312 -31.90625 29.16015625 C-37.48707633 35.40496644 -43.18682565 41.18154835 -49.7578125 46.39453125 C-52.62506573 48.68694869 -54.70638724 50.50724554 -56 54 C-54.68 52.68 -53.36 51.36 -52 50 C-51.34 50.33 -50.68 50.66 -50 51 C-50.6496875 51.87011719 -50.6496875 51.87011719 -51.3125 52.7578125 C-54.88156268 57.67153344 -54.88156268 57.67153344 -56.4375 63.4375 C-56.13104081 65.97983988 -56.13104081 65.97983988 -55 68 C-62.22891566 68.48192771 -62.22891566 68.48192771 -65.5 66.4375 C-67.62180609 62.98956511 -67.53407721 61.0055791 -67 57 C-65.14286283 50.15791569 -60.57157151 46.75728234 -55.14453125 42.55078125 C-47.73919778 36.70002932 -40.84240525 29.67346123 -35.1875 22.125 C-28.13339152 12.72522924 -12.49699112 0 0 0 Z " fill="#290DBF" transform="translate(249,172)"/>
<path d="M0 0 C4.15096454 0.24417438 6.45370849 0.56544994 9.75 3.1875 C14.48048163 9.10060203 16.15112651 14.3053729 16.0625 21.75 C16.05347656 22.73484375 16.04445313 23.7196875 16.03515625 24.734375 C16.02355469 25.48203125 16.01195312 26.2296875 16 27 C15.443125 26.195625 14.88625 25.39125 14.3125 24.5625 C11.78135513 21.75771784 10.67420866 21.30618405 7 21 C1.96194024 27.27450666 -2.05527192 33.99752412 -6 41 C-5.52949219 40.38511719 -5.05898437 39.77023438 -4.57421875 39.13671875 C-3.95160156 38.32847656 -3.32898438 37.52023438 -2.6875 36.6875 C-2.07261719 35.88699219 -1.45773438 35.08648437 -0.82421875 34.26171875 C0.69916307 32.37298626 2.24434407 30.66922364 4 29 C2.65059706 33.88882048 0.44473458 37.55019195 -2.5625 41.5625 C-3.46010837 42.79522868 -4.35723258 44.02831002 -5.25390625 45.26171875 C-6.60548862 47.10417669 -7.95935062 48.94490085 -9.31591797 50.78369141 C-15.9720897 59.58510618 -15.9720897 59.58510618 -19 70 C-18.56445935 72.15562474 -18.56445935 72.15562474 -18 74 C-22.40595131 72.6537371 -24.58291088 70.93896005 -27 67 C-27.62075646 63.35305581 -27.30747785 61.57484989 -25.5625 58.3125 C-24.11313813 56.33376128 -22.5572252 54.47431178 -20.9765625 52.59765625 C-9.74501505 39.23863139 -1.5824784 24.41538102 -0.4375 6.75 C-0.35371094 5.48671875 -0.26992187 4.2234375 -0.18359375 2.921875 C-0.09271484 1.47554687 -0.09271484 1.47554687 0 0 Z " fill="#270AC0" transform="translate(254,172)"/>
<path d="M0 0 C0.33 0 0.66 0 1 0 C1.51345509 8.30085731 0.70721995 14.51935975 -3 22 C-5.9375 21.625 -5.9375 21.625 -9 21 C-10.28446919 18.43106162 -10.32977144 16.23423663 -10.5625 13.375 C-10.68818359 11.87066406 -10.68818359 11.87066406 -10.81640625 10.3359375 C-10.87699219 9.56507813 -10.93757813 8.79421875 -11 8 C-11.79423861 9.56119422 -12.58527123 11.12401964 -13.375 12.6875 C-13.81585938 13.55761719 -14.25671875 14.42773438 -14.7109375 15.32421875 C-15.92664268 17.84772799 -16.99260958 20.38737532 -18 23 C-20.475 22.01 -20.475 22.01 -23 21 C-23.08159574 16.83861737 -22.98248524 13.0527516 -22 9 C-25.40298503 13.739872 -27.75347149 18.62267113 -30 24 C-31.32 23.34 -32.64 22.68 -34 22 C-34.02705308 19.58325776 -34.04686438 17.1668206 -34.0625 14.75 C-34.07087891 14.06808594 -34.07925781 13.38617188 -34.08789062 12.68359375 C-34.10428392 9.30657446 -34.05628768 6.22708361 -33 3 C-29.31245243 3.49831724 -27.39509338 4.10067643 -25 7 C-24.608125 6.34 -24.21625 5.68 -23.8125 5 C-22 3 -22 3 -19.4375 2.5625 C-18.633125 2.706875 -17.82875 2.85125 -17 3 C-16.01 4.485 -16.01 4.485 -15 6 C-13.35 4.68 -11.7 3.36 -10 2 C-5.32307692 3.47692308 -5.32307692 3.47692308 -3.6875 6.125 C-3.460625 6.74375 -3.23375 7.3625 -3 8 C-2.01 5.36 -1.02 2.72 0 0 Z " fill="#222222" transform="translate(148,288)"/>
<path d="M0 0 C2.5 0.75 2.5 0.75 5.5 2.75 C6.82 2.75 8.14 2.75 9.5 2.75 C10.64528549 6.80923971 10.35506545 8.93192453 8.625 12.75 C6.13042859 18.3322577 5.37026082 22.94373457 5.4375 29.0625 C5.44652344 30.13113281 5.45554687 31.19976562 5.46484375 32.30078125 C5.47644531 33.10902344 5.48804688 33.91726563 5.5 34.75 C3.29194476 34.8044452 1.08349446 34.84299283 -1.125 34.875 C-2.35476563 34.89820313 -3.58453125 34.92140625 -4.8515625 34.9453125 C-8.44316041 34.7530428 -11.16661175 34.05258556 -14.5 32.75 C-14.3046875 30.9453125 -14.3046875 30.9453125 -13.5 28.75 C-11.3203125 27.1171875 -11.3203125 27.1171875 -8.625 25.625 C-7.74070312 25.12742187 -6.85640625 24.62984375 -5.9453125 24.1171875 C-5.13835937 23.66601562 -4.33140625 23.21484375 -3.5 22.75 C-2.51 22.09 -1.52 21.43 -0.5 20.75 C-1.428125 20.481875 -2.35625 20.21375 -3.3125 19.9375 C-8.04545455 18.17424242 -8.04545455 18.17424242 -9.5 15.75 C-10.05932526 10.87587992 -10.02284183 8.72356754 -7.6875 4.375 C-3.73076923 -0.37307692 -3.73076923 -0.37307692 0 0 Z M1.5 5.75 C-0.48 8.72 -0.48 8.72 -2.5 11.75 C-2.17 12.41 -1.84 13.07 -1.5 13.75 C0.15 12.1 1.8 10.45 3.5 8.75 C2.84 7.76 2.18 6.77 1.5 5.75 Z M-5.0625 26.25 C-6.30193359 27.22453125 -6.30193359 27.22453125 -7.56640625 28.21875 C-8.20449219 28.7240625 -8.84257812 29.229375 -9.5 29.75 C-5.8558226 32.1794516 -3.78758728 31.91179575 0.5 31.75 C0.5 28.78 0.5 25.81 0.5 22.75 C-1.57085482 22.75 -3.5312806 25.04227766 -5.0625 26.25 Z " fill="#222222" transform="translate(278.5,289.25)"/>
<path d="M0 0 C2.97 0.495 2.97 0.495 6 1 C6.33 2.65 6.66 4.3 7 6 C6.360625 6.268125 5.72125 6.53625 5.0625 6.8125 C2.66868314 7.88667752 2.66868314 7.88667752 2 11 C3.093125 11.556875 4.18625 12.11375 5.3125 12.6875 C8.68037367 14.58959869 10.32185976 16.44629125 12 20 C7.67435795 21.58255197 3.571279 22.45144652 -1 23 C-1.06058594 23.83402344 -1.12117187 24.66804688 -1.18359375 25.52734375 C-2.56931359 44.13862719 -2.56931359 44.13862719 -4 47 C-6.3125 46.875 -6.3125 46.875 -9 46 C-13.45043662 39.48328923 -13.40068287 32.47030863 -12 25 C-11.67 25 -11.34 25 -11 25 C-10.01 29.95 -9.02 34.9 -8 40 C-7.01 34.72 -6.02 29.44 -5 24 C-7.31 23.34 -9.62 22.68 -12 22 C-13.4375 19.875 -13.4375 19.875 -14 18 C-13.32453125 17.78988281 -12.6490625 17.57976562 -11.953125 17.36328125 C-7.34973647 15.57381374 -4.65079625 14.3506475 -2.4453125 9.7734375 C-1.47698923 6.52920113 -0.65166525 3.32154749 0 0 Z " fill="#222222" transform="translate(200,276)"/>
<path d="M0 0 C3.61721723 1.73324992 4.99845796 2.95333422 7 6.4375 C8.13053077 10.17376632 8.88037724 13.67674552 7.078125 17.28125 C4.8393283 20.10047547 2.46540829 22.41826227 -1 23.4375 C-4.78479457 23.8430137 -7.09304713 23.94911444 -10.4375 22.0625 C-12.89821576 17.92849752 -12.81957885 14.1168049 -12 9.4375 C-10.39120455 5.59673933 -8.58122065 2.43665714 -5.015625 0.18359375 C-3 -0.5625 -3 -0.5625 0 0 Z M-2 4.4375 C-2.66 5.7575 -3.32 7.0775 -4 8.4375 C-2.35 7.4475 -0.7 6.4575 1 5.4375 C0.01 5.1075 -0.98 4.7775 -2 4.4375 Z M5 11.4375 C4.525625 11.911875 4.05125 12.38625 3.5625 12.875 C-0.11644797 15.11826096 -3.7621112 15.17489578 -8 15.4375 C-7.67 17.0875 -7.34 18.7375 -7 20.4375 C-1.31251115 19.18625245 1.72847508 17.39647432 6 13.4375 C5.67 12.7775 5.34 12.1175 5 11.4375 Z " fill="#222222" transform="translate(227,288.5625)"/>
<path d="M0 0 C8.65518951 2.41403245 14.71774646 5.63776376 19.95703125 13.05859375 C21.32539572 15.60569915 22.14353019 18.24456996 23 21 C22.07058594 21.12117188 21.14117187 21.24234375 20.18359375 21.3671875 C18.94738281 21.53476563 17.71117187 21.70234375 16.4375 21.875 C14.61025391 22.11863281 14.61025391 22.11863281 12.74609375 22.3671875 C9.02144339 22.99637765 5.60504005 23.8957535 2 25 C2.03480469 23.04707031 2.03480469 23.04707031 2.0703125 21.0546875 C2.08907942 19.32813076 2.10727863 17.60156779 2.125 15.875 C2.14175781 15.0190625 2.15851563 14.163125 2.17578125 13.28125 C2.21306681 8.43412707 1.89580643 4.55292095 0 0 Z " fill="#2579FB" transform="translate(231,130)"/>
<path d="M0 0 C1.32 0.66 2.64 1.32 4 2 C4 4.64 4 7.28 4 10 C4.66 10.33 5.32 10.66 6 11 C5.71517632 12.41805831 5.42181856 13.83440379 5.125 15.25 C4.96257812 16.03890625 4.80015625 16.8278125 4.6328125 17.640625 C4.00849925 19.96831144 3.15161458 21.89031952 2 24 C-1.26892205 23.73495227 -2.63439501 23.40216549 -4.875 20.9375 C-7.06247057 15.22577129 -5.32618158 10.42209053 -3 5.0625 C-1.19614148 1.19614148 -1.19614148 1.19614148 0 0 Z M3 10 C4 12 4 12 4 12 Z " fill="#222222" transform="translate(245,288)"/>
<path d="M0 0 C0.33 0.66 0.66 1.32 1 2 C1.66 1.01 2.32 0.02 3 -1 C3.69426526 14.19669524 3.69426526 14.19669524 0 20 C-1.984375 20.86328125 -1.984375 20.86328125 -4 21 C-6 19 -6 19 -6.1875 15.1875 C-6.11266813 12.02729249 -5.76920251 9.07681004 -5 6 C-6.98 5.34 -8.96 4.68 -11 4 C-11 3.01 -11 2.02 -11 1 C-6.9366946 -0.60642307 -4.21472177 -1.44504746 0 0 Z M0 7 C1 10 1 10 1 10 Z " fill="#222222" transform="translate(163,290)"/>
<path d="M0 0 C0.86625 0.12375 1.7325 0.2475 2.625 0.375 C4.4375 2.875 4.4375 2.875 5.625 5.375 C6.285 4.055 6.945 2.735 7.625 1.375 C7.73383596 3.75125177 7.81266696 6.12243976 7.875 8.5 C7.92527344 9.49773437 7.92527344 9.49773437 7.9765625 10.515625 C8.08138928 15.86179071 6.82326227 18.33310162 3.625 22.375 C1.125 21.4375 1.125 21.4375 -1.375 19.375 C-2.35614116 14.14572635 -1.25853568 8.56577211 -0.375 3.375 C-2.025 4.035 -3.675 4.695 -5.375 5.375 C-3.00367647 0.47426471 -3.00367647 0.47426471 0 0 Z " fill="#222222" transform="translate(256.375,289.625)"/>
<path d="M0 0 C4.27337411 1.70934964 5.77112891 2.37295342 8.75 5.4375 C9.34296875 6.03433594 9.9359375 6.63117188 10.546875 7.24609375 C12 9 12 9 13 12 C6.565 12.495 6.565 12.495 0 13 C0 8.71 0 4.42 0 0 Z " fill="#31A7FD" transform="translate(241,139)"/>
<path d="M0 0 C3.81548744 0.2661968 5.68369535 0.74254273 8.6875 3.1875 C13.63381259 9.20328558 14.56583272 14.42452955 15 22 C13.43173393 19.6476009 12.33457432 17.60558817 11.1875 15.0625 C9.37194384 11.39089201 7.53450614 9.20906634 4 7 C1.81785432 6.22166466 1.81785432 6.22166466 0 6 C0 4.02 0 2.04 0 0 Z " fill="#142F84" transform="translate(255,172)"/>
<path d="M0 0 C9.77426066 2.72615433 15.47182367 6.45645476 21 15 C20.67 15.66 20.34 16.32 20 17 C19.53851563 16.54109375 19.07703125 16.0821875 18.6015625 15.609375 C14.79446213 12.02799204 11.60360071 9.63803949 6.625 7.9375 C2.18988372 6.37976744 2.18988372 6.37976744 0.375 2.75 C0.25125 1.8425 0.1275 0.935 0 0 Z " fill="#2910BB" transform="translate(231,130)"/>
<path d="M0 0 C2.875 2.375 2.875 2.375 5 5 C5 5.66 5 6.32 5 7 C-5.88028169 7.57042254 -5.88028169 7.57042254 -10 4 C-10 3.34 -10 2.68 -10 2 C-6.58459721 -0.10178633 -3.97748585 -0.56821226 0 0 Z " fill="#222222" transform="translate(163,279)"/>
<path d="M0 0 C0.66 0.33 1.32 0.66 2 1 C1.505 2.175625 1.01 3.35125 0.5 4.5625 C-0.96787078 8.53769072 -1.56386693 11.7307218 -1 16 C0.85716187 18.90809543 0.85716187 18.90809543 3 21 C-0.375 20.6875 -0.375 20.6875 -4 20 C-6.52672455 16.20991318 -6.44341245 14.50802658 -6 10 C-4.53869716 6.18131238 -2.90100411 2.90100411 0 0 Z " fill="#1719B8" transform="translate(188,219)"/>
<path d="M0 0 C1.32 0 2.64 0 4 0 C4 4.62 4 9.24 4 14 C2.02 14.99 2.02 14.99 0 16 C0 10.72 0 5.44 0 0 Z " fill="#2B91FD" transform="translate(237,138)"/>
<path d="M0 0 C0.66 0.33 1.32 0.66 2 1 C2 1.99 2 2.98 2 4 C0.35443434 5.03435556 -1.3170608 6.02763513 -3 7 C-4.7041054 8.62836738 -6.38025441 10.28769752 -8 12 C-6.49087042 7.01987239 -3.44338151 3.75740058 0 0 Z " fill="#2564F1" transform="translate(198,218)"/>
<path d="M0 0 C4.875 3.625 4.875 3.625 6 7 C4.02 7 2.04 7 0 7 C0 4.69 0 2.38 0 0 Z " fill="#3ECEFA" transform="translate(248,144)"/>
<path d="M0 0 C0.99 0.33 1.98 0.66 3 1 C3 3.64 3 6.28 3 9 C2.01 9 1.02 9 0 9 C0 6.03 0 3.06 0 0 Z " fill="#37BCFE" transform="translate(245,142)"/>
<path d="M0 0 C0.99 0.33 1.98 0.66 3 1 C0.36 4.3 -2.28 7.6 -5 11 C-5 7.58678765 -4.33132534 6.60527115 -2.5 3.8125 C-2.0359375 3.09707031 -1.571875 2.38164062 -1.09375 1.64453125 C-0.7328125 1.10183594 -0.371875 0.55914062 0 0 Z " fill="#2F8AF4" transform="translate(253,203)"/>
<path d="M0 0 C0.33 0.66 0.66 1.32 1 2 C-0.21484375 4.3828125 -0.21484375 4.3828125 -1.9375 7.125 C-2.50339844 8.03507813 -3.06929687 8.94515625 -3.65234375 9.8828125 C-4.09707031 10.58148438 -4.54179687 11.28015625 -5 12 C-5.66 11.34 -6.32 10.68 -7 10 C-3.535 5.05 -3.535 5.05 0 0 Z " fill="#2A24CA" transform="translate(257,201)"/>
<path d="M0 0 C1.231394 3.69418201 0.64432764 6.2056261 0 10 C-0.66 9.01 -1.32 8.02 -2 7 C-2.99 7.495 -2.99 7.495 -4 8 C-2.25 2.25 -2.25 2.25 0 0 Z " fill="#168313" transform="translate(175,225)"/>
</svg>
